<?xml version="1.0" encoding="UTF-8"?>
<svg xmlns="http://www.w3.org/2000/svg" xmlns:xlink="http://www.w3.org/1999/xlink" width="24pt" height="24pt" viewBox="0 0 24 24" version="1.1">
<g id="surface1">
<path style=" stroke:none;fill-rule:nonzero;fill:rgb(0%,0%,0%);fill-opacity:1;" d="M 10.253906 0.960938 C 7.636719 0.960938 5.957031 2.167969 5.429688 3.464844 C 3.367188 3.902344 1.921875 6.160156 1.921875 8.640625 C 1.921875 9.660156 2.214844 10.683594 2.730469 11.816406 C 2.308594 12.328125 1.921875 12.972656 1.921875 13.921875 C 1.921875 15.160156 2.734375 16.359375 4.183594 17.023438 C 3.726562 18.082031 3.824219 19.105469 4.367188 19.832031 C 4.929688 20.585938 5.875 20.980469 6.890625 21.058594 C 7.199219 21.867188 7.753906 22.429688 8.371094 22.695312 C 9.070312 23 9.785156 23.039062 10.253906 23.039062 C 10.96875 23.039062 11.59375 22.703125 12 22.179688 C 12.40625 22.699219 13.03125 23.035156 13.742188 23.039062 C 14.183594 23.042969 14.898438 23.003906 15.605469 22.699219 C 16.214844 22.4375 16.769531 21.882812 17.085938 21.09375 C 17.851562 21.070312 18.644531 20.957031 19.320312 20.578125 C 20.074219 20.152344 20.640625 19.347656 20.640625 18.238281 C 20.640625 17.808594 20.484375 17.410156 20.300781 17.007812 C 20.917969 16.699219 21.402344 16.308594 21.667969 15.824219 C 22.003906 15.214844 22.078125 14.542969 22.078125 13.921875 C 22.078125 12.964844 21.628906 12.386719 21.1875 11.917969 C 21.710938 10.78125 22.097656 9.6875 22.078125 8.632812 C 22.035156 5.832031 20.148438 3.863281 18.101562 3.457031 C 17.644531 2.257812 16.347656 0.960938 13.746094 0.960938 C 13.09375 0.960938 12.457031 1.128906 12.054688 1.644531 C 12.035156 1.671875 12.019531 1.699219 12 1.726562 C 11.980469 1.699219 11.964844 1.671875 11.945312 1.644531 C 11.542969 1.128906 10.90625 0.960938 10.253906 0.960938 Z M 10.253906 1.921875 C 10.769531 1.921875 11.007812 2.003906 11.1875 2.234375 C 11.367188 2.464844 11.519531 2.980469 11.519531 3.929688 L 11.519531 6.640625 C 11.511719 6.691406 11.511719 6.742188 11.519531 6.796875 L 11.519531 8.640625 L 10.078125 8.640625 L 10.078125 6.238281 L 8.070312 6.238281 C 7.871094 5.683594 7.339844 5.28125 6.71875 5.28125 C 5.929688 5.28125 5.28125 5.929688 5.28125 6.71875 C 5.28125 7.507812 5.929688 8.160156 6.71875 8.160156 C 7.339844 8.160156 7.871094 7.753906 8.070312 7.199219 L 9.121094 7.199219 L 9.121094 9.601562 L 11.519531 9.601562 L 11.519531 13.441406 L 8.160156 13.441406 L 8.160156 16.410156 C 7.605469 16.609375 7.199219 17.140625 7.199219 17.761719 C 7.199219 18.550781 7.851562 19.199219 8.640625 19.199219 C 9.429688 19.199219 10.078125 18.550781 10.078125 17.761719 C 10.078125 17.140625 9.675781 16.609375 9.121094 16.410156 L 9.121094 14.398438 L 11.519531 14.398438 L 11.519531 17.679688 C 11.511719 17.730469 11.511719 17.785156 11.519531 17.835938 L 11.519531 20.800781 C 11.519531 21.585938 11.011719 22.078125 10.253906 22.078125 C 9.847656 22.078125 9.253906 22.035156 8.753906 21.816406 C 8.253906 21.597656 7.847656 21.257812 7.664062 20.523438 L 7.574219 20.160156 L 7.199219 20.160156 C 6.320312 20.160156 5.535156 19.792969 5.136719 19.257812 C 4.738281 18.722656 4.632812 18.023438 5.210938 17.046875 L 5.515625 16.535156 L 4.953125 16.34375 C 3.488281 15.851562 2.878906 14.867188 2.878906 13.921875 C 2.878906 13.09375 3.1875 12.679688 3.621094 12.203125 L 3.804688 12 L 5.371094 12 C 5.570312 12.554688 6.097656 12.960938 6.71875 12.960938 C 7.507812 12.960938 8.160156 12.308594 8.160156 11.519531 C 8.160156 10.730469 7.507812 10.078125 6.71875 10.078125 C 6.097656 10.078125 5.570312 10.484375 5.371094 11.039062 L 3.421875 11.039062 C 3.058594 10.152344 2.878906 9.390625 2.878906 8.640625 C 2.878906 6.4375 4.261719 4.507812 5.816406 4.316406 L 6.136719 4.277344 L 6.222656 3.972656 C 6.4375 3.214844 7.792969 1.921875 10.253906 1.921875 Z M 13.746094 1.921875 C 16.207031 1.921875 17.046875 3.085938 17.296875 3.972656 L 17.386719 4.277344 L 17.703125 4.316406 C 19.320312 4.515625 21.082031 6.160156 21.121094 8.648438 C 21.132812 9.53125 20.773438 10.609375 20.207031 11.792969 L 20.0625 12.097656 L 20.296875 12.335938 C 20.796875 12.84375 21.121094 13.113281 21.121094 13.921875 C 21.121094 14.460938 21.046875 14.960938 20.824219 15.363281 C 20.683594 15.617188 20.472656 15.84375 20.160156 16.039062 L 20.160156 13.921875 L 15.839844 13.921875 L 15.839844 12.390625 C 16.394531 12.191406 16.800781 11.660156 16.800781 11.039062 C 16.800781 10.25 16.148438 9.601562 15.359375 9.601562 C 14.570312 9.601562 13.921875 10.25 13.921875 11.039062 C 13.921875 11.660156 14.324219 12.191406 14.878906 12.390625 L 14.878906 14.878906 L 19.199219 14.878906 L 19.199219 16.730469 C 19.183594 16.839844 19.207031 16.953125 19.261719 17.046875 C 19.261719 17.046875 19.261719 17.050781 19.261719 17.050781 C 19.511719 17.558594 19.679688 17.988281 19.679688 18.238281 C 19.679688 19.054688 19.371094 19.449219 18.847656 19.742188 C 18.324219 20.035156 17.554688 20.160156 16.800781 20.160156 L 16.425781 20.160156 L 16.335938 20.523438 C 16.15625 21.25 15.734375 21.597656 15.226562 21.816406 C 14.714844 22.039062 14.117188 22.082031 13.75 22.078125 C 12.988281 22.074219 12.480469 21.585938 12.480469 20.800781 L 12.480469 18.238281 L 14.488281 18.238281 C 14.691406 18.796875 15.21875 19.199219 15.839844 19.199219 C 16.628906 19.199219 17.28125 18.550781 17.28125 17.761719 C 17.28125 16.96875 16.628906 16.320312 15.839844 16.320312 C 15.21875 16.320312 14.691406 16.722656 14.488281 17.28125 L 12.480469 17.28125 L 12.480469 14 C 12.488281 13.949219 12.488281 13.894531 12.480469 13.84375 L 12.480469 9.199219 C 12.488281 9.148438 12.488281 9.097656 12.480469 9.042969 L 12.480469 7.199219 L 16.410156 7.199219 C 16.609375 7.753906 17.140625 8.160156 17.761719 8.160156 C 18.550781 8.160156 19.199219 7.507812 19.199219 6.71875 C 19.199219 5.929688 18.550781 5.28125 17.761719 5.28125 C 17.140625 5.28125 16.609375 5.683594 16.410156 6.238281 L 12.480469 6.238281 L 12.480469 3.929688 C 12.480469 2.980469 12.632812 2.464844 12.8125 2.234375 C 12.992188 2.003906 13.230469 1.921875 13.746094 1.921875 Z M 6.71875 6.238281 C 6.980469 6.238281 7.179688 6.4375 7.195312 6.691406 C 7.191406 6.710938 7.191406 6.730469 7.195312 6.75 C 7.179688 7.003906 6.980469 7.199219 6.71875 7.199219 C 6.449219 7.199219 6.238281 6.992188 6.238281 6.71875 C 6.238281 6.449219 6.449219 6.238281 6.71875 6.238281 Z M 17.761719 6.238281 C 18.03125 6.238281 18.238281 6.449219 18.238281 6.71875 C 18.238281 6.992188 18.03125 7.199219 17.761719 7.199219 C 17.5 7.199219 17.300781 7.003906 17.285156 6.746094 C 17.285156 6.730469 17.285156 6.710938 17.285156 6.691406 C 17.300781 6.4375 17.5 6.238281 17.761719 6.238281 Z M 15.359375 10.558594 C 15.628906 10.558594 15.839844 10.769531 15.839844 11.039062 C 15.839844 11.300781 15.644531 11.5 15.386719 11.515625 C 15.375 11.511719 15.363281 11.511719 15.351562 11.511719 C 15.34375 11.511719 15.339844 11.515625 15.332031 11.515625 C 15.074219 11.5 14.878906 11.300781 14.878906 11.039062 C 14.878906 10.769531 15.089844 10.558594 15.359375 10.558594 Z M 6.71875 11.039062 C 6.992188 11.039062 7.199219 11.25 7.199219 11.519531 C 7.199219 11.789062 6.992188 12 6.71875 12 C 6.457031 12 6.261719 11.804688 6.246094 11.546875 C 6.246094 11.527344 6.246094 11.511719 6.246094 11.492188 C 6.261719 11.234375 6.460938 11.039062 6.71875 11.039062 Z M 15.839844 17.28125 C 16.109375 17.28125 16.320312 17.488281 16.320312 17.761719 C 16.320312 18.03125 16.109375 18.238281 15.839844 18.238281 C 15.578125 18.238281 15.378906 18.042969 15.367188 17.789062 C 15.367188 17.769531 15.367188 17.75 15.367188 17.730469 C 15.378906 17.476562 15.578125 17.28125 15.839844 17.28125 Z M 8.613281 17.285156 C 8.632812 17.285156 8.648438 17.285156 8.667969 17.285156 C 8.925781 17.300781 9.121094 17.5 9.121094 17.761719 C 9.121094 18.03125 8.910156 18.238281 8.640625 18.238281 C 8.371094 18.238281 8.160156 18.03125 8.160156 17.761719 C 8.160156 17.5 8.355469 17.300781 8.613281 17.285156 Z M 8.613281 17.285156 "/>
</g>
</svg>
