<?xml version="1.0" encoding="UTF-8" standalone="yes"?>
<svg xmlns="http://www.w3.org/2000/svg" xmlns:xlink="http://www.w3.org/1999/xlink" width="24px" height="24px" viewBox="0 0 24 24" version="1.1" fill="#000000">
  <g id="surface3549">
    <path style=" stroke:none;fill-rule:nonzero;fill:#000000;fill-opacity:1;" d="M 2 2 L 2 7 L 4 7 L 4 4 L 7 4 L 7 2 Z M 17 2 L 17 4 L 20 4 L 20 7 L 22 7 L 22 2 Z M 11.15625 6.03125 L 7 17 L 8.96875 17 L 9.875 14.4375 L 14.125 14.4375 L 15 17 L 17 17 L 12.84375 6.03125 Z M 12 8.375 L 13.59375 12.90625 L 10.40625 12.90625 Z M 2 17 L 2 22 L 7 22 L 7 20 L 4 20 L 4 17 Z M 20 17 L 20 20 L 17 20 L 17 22 L 22 22 L 22 17 Z M 20 17 "/>
  </g>
</svg>
