<?xml version="1.0" encoding="UTF-8" standalone="yes"?>
<svg xmlns="http://www.w3.org/2000/svg" xmlns:xlink="http://www.w3.org/1999/xlink" width="24px" height="24px" viewBox="0 0 24 24" version="1.1" fill="#000000">
  <g id="surface87726">
    <path style=" stroke:none;fill-rule:nonzero;fill:#000000;fill-opacity:1;" d="M 2 2 L 2 7 L 4 7 L 4 4 L 7 4 L 7 2 Z M 17 2 L 17 4 L 20 4 L 20 7 L 22 7 L 22 2 Z M 5.90625 8 C 3.394531 8 3 10.457031 3 11.34375 L 3 11.65625 C 3 12.722656 3.464844 15 5.90625 15 C 8.417969 15 8.8125 12.707031 8.8125 11.65625 L 8.8125 11.34375 C 8.839844 10.425781 8.441406 8 5.90625 8 Z M 12.4375 8 C 10.242188 8 9.625 9.875 9.625 11.28125 L 9.625 11.71875 C 9.625 13.097656 10.277344 15 12.4375 15 C 14.726562 15 15.050781 13.441406 15.15625 12.625 L 13.78125 12.625 C 13.671875 13.316406 13.496094 13.84375 12.4375 13.84375 C 11.398438 13.84375 11.03125 13.019531 11.03125 11.71875 L 11.03125 11.28125 C 11.03125 10.058594 11.382812 9.15625 12.4375 9.15625 C 13.398438 9.15625 13.710938 9.640625 13.78125 10.40625 L 15.1875 10.40625 C 15.070312 9.203125 14.289062 8 12.4375 8 Z M 16.09375 8.09375 L 16.09375 14.90625 L 17.5 14.90625 L 17.5 12.40625 L 18.625 12.40625 L 19.875 14.90625 L 21.40625 14.90625 L 21.40625 14.84375 L 19.9375 12.0625 C 21.203125 11.472656 21.15625 10.40625 21.15625 10.15625 C 21.15625 9.820312 21.082031 8.09375 18.625 8.09375 Z M 5.90625 9.15625 C 7.050781 9.15625 7.375 10.292969 7.375 11.34375 L 7.375 11.65625 C 7.375 13 6.933594 13.84375 5.90625 13.84375 C 5.292969 13.84375 4.4375 13.457031 4.4375 11.65625 L 4.4375 11.34375 C 4.4375 10.25 4.753906 9.15625 5.90625 9.15625 Z M 17.5 9.21875 L 18.625 9.21875 C 19.644531 9.21875 19.75 9.929688 19.75 10.25 C 19.75 10.402344 19.777344 11.28125 18.625 11.28125 L 17.5 11.28125 Z M 2 17 L 2 22 L 7 22 L 7 20 L 4 20 L 4 17 Z M 20 17 L 20 20 L 17 20 L 17 22 L 22 22 L 22 17 Z M 20 17 "/>
  </g>
</svg>
